<svg width="18" height="15" viewBox="0 0 18 15" fill="none" xmlns="http://www.w3.org/2000/svg">
<path d="M18 1.98135C17.3229 2.27666 16.6068 2.47293 15.8737 2.5641C16.6463 2.1058 17.2238 1.38011 17.4971 0.524473C16.7738 0.953476 15.9824 1.25558 15.1571 1.41772C14.6511 0.877474 13.9944 0.501881 13.2722 0.339742C12.55 0.177602 11.7957 0.236409 11.1073 0.508525C10.419 0.78064 9.82836 1.25348 9.41223 1.86563C8.9961 2.47777 8.77368 3.20091 8.77387 3.9411C8.77387 4.2336 8.79862 4.51485 8.85938 4.7826C7.39134 4.71062 5.95503 4.32961 4.64434 3.66448C3.33365 2.99935 2.17811 2.06507 1.25325 0.922723C0.779422 1.73481 0.632935 2.69697 0.843619 3.61328C1.0543 4.52958 1.60631 5.33114 2.38725 5.85472C1.8031 5.83906 1.23128 5.68318 0.72 5.40022V5.44072C0.720979 6.29283 1.0155 7.11859 1.55398 7.77899C2.09247 8.43939 2.84203 8.89411 3.6765 9.0666C3.36081 9.1498 3.03546 9.19065 2.709 9.1881C2.47454 9.19227 2.24031 9.17114 2.01038 9.1251C2.24881 9.8575 2.70843 10.498 3.32594 10.9583C3.94346 11.4187 4.68851 11.6763 5.4585 11.6957C4.15231 12.7173 2.54135 13.2714 0.883125 13.2696C0.5805 13.2696 0.29025 13.2561 0 13.219C1.68737 14.3063 3.65364 14.8815 5.661 14.875C12.4515 14.875 16.164 9.24997 16.164 4.37422C16.164 4.2111 16.1584 4.0536 16.1505 3.89722C16.8783 3.37633 17.5051 2.72709 18 1.98135Z" fill="#F7F7F7"/>
</svg>
